<?xml version="1.0" encoding="UTF-8" standalone="no"?>
<!-- Generator: Adobe Illustrator 22.0.0, SVG Export Plug-In . SVG Version: 6.00 Build 0)  -->

<svg
   version="1.1"
   id="Capa_1"
   x="0px"
   y="0px"
   viewBox="0 0 393.6697 382.29396"
   xml:space="preserve"
   sodipodi:docname="logo-ift-p1.svg"
   width="393.66971"
   height="382.29398"
   inkscape:version="1.1 (c68e22c387, 2021-05-23)"
   xmlns:inkscape="http://www.inkscape.org/namespaces/inkscape"
   xmlns:sodipodi="http://sodipodi.sourceforge.net/DTD/sodipodi-0.dtd"
   xmlns="http://www.w3.org/2000/svg"
   xmlns:svg="http://www.w3.org/2000/svg"><defs
   id="defs103" /><sodipodi:namedview
   id="namedview101"
   pagecolor="#ffffff"
   bordercolor="#666666"
   borderopacity="1.0"
   inkscape:pageshadow="2"
   inkscape:pageopacity="0.0"
   inkscape:pagecheckerboard="0"
   showgrid="false"
   fit-margin-top="0"
   fit-margin-left="0"
   fit-margin-right="0"
   fit-margin-bottom="0"
   inkscape:zoom="0.50925093"
   inkscape:cx="22.582187"
   inkscape:cy="63.819225"
   inkscape:window-width="1920"
   inkscape:window-height="1017"
   inkscape:window-x="1912"
   inkscape:window-y="-8"
   inkscape:window-maximized="1"
   inkscape:current-layer="Capa_1" />
<style
   type="text/css"
   id="style2">
	.st0{fill:#757679;}
	.st1{fill:#8DBA38;}
	.st2{fill:#6B9B3B;}
	.st3{fill:#FFFFFF;}
	.st4{fill:#C6D420;}
</style>
<g
   id="g98"
   transform="matrix(1.8055829,0,0,1.8055829,-19.77588,0.11411764)">
	<rect
   x="16.799999"
   y="307.89999"
   class="st0"
   width="3.5"
   height="34.900002"
   id="rect4" />
	<polygon
   class="st0"
   points="54.2,342.8 33.5,312.1 33.4,312.1 33.4,342.8 29.9,342.8 29.9,307.9 34.6,307.9 54.1,336.8 54.2,336.8 54.2,307.9 57.6,307.9 57.6,342.8 "
   id="polygon6" />
	<path
   class="st0"
   d="m 68.2,333 c 0.2,4.4 3,7.2 7.3,7.2 3.7,0 7,-2.8 7,-6.9 0,-5.4 -5.4,-6.7 -7.8,-7.4 -3.2,-0.9 -9,-2.3 -9,-9.2 0,-5.4 4.3,-9.4 9.8,-9.4 5.7,0 9.7,4.4 9.7,9.5 h -3.5 c 0,-3.5 -2.9,-6.3 -6.2,-6.3 -4,0 -6.3,3.1 -6.3,6.1 0,4.2 3.7,5.2 8.3,6.5 8.6,2.3 8.5,9 8.5,10.1 0,5.4 -4.3,10.2 -10.5,10.2 -4.5,0 -10.6,-2.7 -10.7,-10.4 z"
   id="path8" />
	<polygon
   class="st0"
   points="98,342.8 98,311.1 90,311.1 90,307.9 109.4,307.9 109.4,311.1 101.5,311.1 101.5,342.8 "
   id="polygon10" />
	<rect
   x="115.8"
   y="307.89999"
   class="st0"
   width="3.5"
   height="34.900002"
   id="rect12" />
	<polygon
   class="st0"
   points="133.7,342.8 133.7,311.1 125.7,311.1 125.7,307.9 145.1,307.9 145.1,311.1 137.2,311.1 137.2,342.8 "
   id="polygon14" />
	<path
   class="st0"
   d="m 155,307.9 v 21.7 c 0,2.5 0.4,4.9 1.2,6.3 2.1,3.9 5.6,4.3 7.2,4.3 1.6,0 5.1,-0.4 7.2,-4.3 0.8,-1.5 1.2,-3.8 1.2,-6.3 v -21.7 h 3.5 v 21.7 c 0,2.9 -0.5,5.4 -1.3,7.3 -2.4,5.2 -7.3,6.5 -10.5,6.5 -3.2,0 -8.1,-1.3 -10.6,-6.5 -0.8,-1.8 -1.3,-4.3 -1.3,-7.3 v -21.7 z"
   id="path16" />
	<polygon
   class="st0"
   points="189.6,342.8 189.6,311.1 181.6,311.1 181.6,307.9 201,307.9 201,311.1 193.1,311.1 193.1,342.8 "
   id="polygon18" />
	<path
   class="st0"
   d="m 224.3,307.3 c 9.8,0 18.5,7.8 18.5,18 0,10.2 -8.7,18 -18.5,18 -9.9,0 -18.4,-8.1 -18.4,-17.8 0,-10.9 9.1,-18.2 18.4,-18.2 m 0,32.9 c 8.1,0 15,-6.5 15,-14.8 0,-8.1 -6.7,-14.9 -15,-14.9 -7.9,0 -14.9,6.4 -14.9,15.1 0,7.9 6.8,14.6 14.9,14.6"
   id="path20" />
	<polygon
   class="st0"
   points="269.6,326.9 269.6,342.8 266.1,342.8 266.1,307.9 283.8,307.9 283.8,311.1 269.6,311.1 269.6,323.7 283.2,323.7 283.2,326.9 "
   id="polygon22" />
	<polygon
   class="st0"
   points="295,326.8 295,339.6 310.6,339.6 310.6,342.8 291.5,342.8 291.5,307.9 310.6,307.9 310.6,311.1 295,311.1 295,323.6 310,323.6 310,326.8 "
   id="polygon24" />
	<path
   class="st0"
   d="m 319.4,307.9 h 10.2 c 4.3,0 8.5,1 11.4,2.9 6.1,3.8 7.9,10.5 7.9,14.6 0,3.2 -1.3,10.2 -7.9,14.5 -2.8,1.8 -7.1,2.9 -11.4,2.9 h -10.2 z m 3.5,31.7 h 5 c 3.2,0 8,0 12,-2.8 2.1,-1.8 5.5,-5.4 5.5,-11.5 0,-4.6 -2.3,-8.9 -5.9,-11.5 -3.1,-2 -6.4,-2.7 -11.5,-2.7 h -5 v 28.5 z"
   id="path26" />
	<polygon
   class="st0"
   points="360.3,326.8 360.3,339.6 375.9,339.6 375.9,342.8 356.8,342.8 356.8,307.9 375.9,307.9 375.9,311.1 360.3,311.1 360.3,323.6 375.3,323.6 375.3,326.8 "
   id="polygon28" />
	<path
   class="st0"
   d="m 384.5,307.9 h 8.9 c 4.7,0 7,0.6 8.6,1.3 3.9,1.8 6.2,5.7 6.2,9.9 0,5 -3.6,10.2 -10.4,10.6 l 9.8,13 h -4.4 L 391.4,327 c 4.4,0 5.9,0 7.5,-0.5 3.8,-1.1 5.7,-4.3 5.7,-7.4 0,-2.7 -1.6,-5.6 -3.8,-6.7 -2.1,-1.1 -3.9,-1.3 -6.8,-1.3 h -6 v 31.7 h -3.5 z"
   id="path30" />
	<path
   class="st0"
   d="m 427.8,307.9 h 3.9 l 15,34.9 h -3.8 l -5,-11.7 h -16.2 l -5.1,11.7 H 413 Z m -4.9,20 h 13.5 l -6.7,-16 z"
   id="path32" />
	<polygon
   class="st0"
   points="457,307.9 457,339.6 471.4,339.6 471.4,342.8 453.5,342.8 453.5,307.9 "
   id="polygon34" />
	<path
   class="st0"
   d="m 493,307.9 h 10.2 c 4.3,0 8.5,1 11.3,2.9 6.1,3.8 7.9,10.5 7.9,14.6 0,3.2 -1.3,10.2 -7.9,14.5 -2.8,1.8 -7.1,2.9 -11.3,2.9 H 493 Z m 3.4,31.7 h 5 c 3.2,0 8,0 12,-2.8 2.1,-1.8 5.5,-5.4 5.5,-11.5 0,-4.6 -2.3,-8.9 -5.9,-11.5 -3.1,-2 -6.4,-2.7 -11.5,-2.7 h -5 v 28.5 z"
   id="path36" />
	<polygon
   class="st0"
   points="533.8,326.8 533.8,339.6 549.4,339.6 549.4,342.8 530.3,342.8 530.3,307.9 549.4,307.9 549.4,311.1 533.8,311.1 533.8,323.6 548.9,323.6 548.9,326.8 "
   id="polygon38" />
	<polygon
   class="st0"
   points="25.3,398 20.2,398 20.2,367.8 13.6,367.8 13.6,363.1 32,363.1 32,367.8 25.3,367.8 "
   id="polygon40" />
	<polygon
   class="st0"
   points="55.1,382.7 41.4,382.7 41.4,393.3 55.1,393.3 55.1,398 36.3,398 36.3,363.1 55.1,363.1 55.1,367.8 41.4,367.8 41.4,378.1 55.1,378.1 "
   id="polygon42" />
	<polygon
   class="st0"
   points="62.2,363.1 67.3,363.1 67.3,393.3 79.4,393.3 79.4,398 62.2,398 "
   id="polygon44" />
	<polygon
   class="st0"
   points="102.1,382.7 88.4,382.7 88.4,393.3 102.1,393.3 102.1,398 83.3,398 83.3,363.1 102.1,363.1 102.1,367.8 88.4,367.8 88.4,378.1 102.1,378.1 "
   id="polygon46" />
	<path
   class="st0"
   d="m 135.1,372 c -1,-1.2 -4.1,-4.9 -9.8,-4.9 -7.3,0 -13,6 -13,13.3 0,7.5 6,13.5 12.9,13.5 3.7,0 7.1,-1.8 9.5,-4.6 h 6.3 c -3.9,6.8 -10.4,9.3 -15.8,9.3 -9.9,0 -17.9,-8.3 -17.9,-18.2 0,-10.2 8.2,-17.9 17.9,-17.9 2.6,0 6.9,0.7 10.6,3.4 3.2,2.3 4.5,4.6 5.4,6.2 h -6.1 z"
   id="path48" />
	<path
   class="st0"
   d="m 163.1,398.6 c -10.4,0 -18.1,-8.5 -18.1,-18.1 0,-9.5 7.5,-18.1 18.1,-18.1 10.4,0 18.1,8.2 18.1,18.2 0,9.6 -7.8,18 -18.1,18 m 0,-31.5 c -9,0 -13,7.9 -13,13.4 0,5.7 4.1,13.4 13,13.4 9,0 13,-7.8 13,-13.3 0,-6.1 -4.4,-13.5 -13,-13.5"
   id="path50" />
	<polygon
   class="st0"
   points="192.4,398 187.3,398 187.3,363.1 195.3,363.1 205.8,389.8 216.3,363.1 224.3,363.1 224.3,398 219.2,398 219.2,368.6 219.1,368.6 207.4,398 204.3,398 192.5,368.6 192.4,368.6 "
   id="polygon52" />
	<path
   class="st0"
   d="m 255.4,386.7 c 0,4 -1.3,6.8 -3.5,8.9 -2.2,1.8 -4.9,3 -8.1,3 -3.2,0 -6,-1.2 -8.1,-3 -2.2,-2.1 -3.5,-5 -3.5,-8.9 v -23.6 h 5.1 v 23.5 c 0,6.5 4.7,7.4 6.6,7.4 1.9,0 6.6,-0.9 6.6,-7.4 v -23.5 h 5.1 v 23.6 z"
   id="path54" />
	<polygon
   class="st0"
   points="285.7,389.7 285.8,389.7 285.8,363.1 290.9,363.1 290.9,398 285.6,398 268.4,371.1 268.3,371.1 268.3,398 263.2,398 263.2,363.1 268.8,363.1 "
   id="polygon56" />
	<rect
   x="298.79999"
   y="363.10001"
   class="st0"
   width="5.0999999"
   height="34.900002"
   id="rect58" />
	<path
   class="st0"
   d="m 337.8,372 c -1,-1.2 -4.1,-4.9 -9.8,-4.9 -7.3,0 -13,6 -13,13.3 0,7.5 6,13.5 12.9,13.5 3.7,0 7.1,-1.8 9.5,-4.6 h 6.3 c -3.9,6.8 -10.4,9.3 -15.8,9.3 -9.9,0 -17.9,-8.3 -17.9,-18.2 0,-10.2 8.2,-17.9 17.9,-17.9 2.6,0 6.9,0.7 10.6,3.4 3.2,2.3 4.5,4.6 5.4,6.2 h -6.1 z"
   id="path60" />
	<path
   class="st0"
   d="m 370.2,398 -3.9,-10.3 h -12.5 l -3.9,10.3 h -5.4 l 13.2,-34.9 h 4.6 l 13.2,34.9 z m -5.6,-14.9 -4.4,-13.3 H 360 l -4.5,13.3 z"
   id="path62" />
	<path
   class="st0"
   d="m 404.7,372 c -1,-1.2 -4.1,-4.9 -9.8,-4.9 -7.3,0 -13,6 -13,13.3 0,7.5 6,13.5 12.9,13.5 3.7,0 7.1,-1.8 9.5,-4.6 h 6.3 c -3.9,6.8 -10.4,9.3 -15.8,9.3 -9.9,0 -17.9,-8.3 -17.9,-18.2 0,-10.2 8.2,-17.9 17.9,-17.9 2.6,0 6.9,0.7 10.6,3.4 3.2,2.3 4.5,4.6 5.4,6.2 h -6.1 z"
   id="path64" />
	<rect
   x="416.20001"
   y="363.10001"
   class="st0"
   width="5.0999999"
   height="34.900002"
   id="rect66" />
	<path
   class="st0"
   d="m 445.5,398.6 c -10.4,0 -18.1,-8.5 -18.1,-18.1 0,-9.5 7.5,-18.1 18.1,-18.1 10.4,0 18.1,8.2 18.1,18.2 0.1,9.6 -7.7,18 -18.1,18 m 0,-31.5 c -9,0 -13,7.9 -13,13.4 0,5.7 4.1,13.4 13,13.4 9,0 13,-7.8 13,-13.3 0.1,-6.1 -4.3,-13.5 -13,-13.5"
   id="path68" />
	<polygon
   class="st0"
   points="492.3,389.7 492.4,389.7 492.4,363.1 497.5,363.1 497.5,398 492.2,398 475,371.1 474.9,371.1 474.9,398 469.8,398 469.8,363.1 475.4,363.1 "
   id="polygon70" />
	<polygon
   class="st0"
   points="523.7,382.7 510,382.7 510,393.3 523.7,393.3 523.7,398 504.9,398 504.9,363.1 523.7,363.1 523.7,367.8 510,367.8 510,378.1 523.7,378.1 "
   id="polygon72" />
	<path
   class="st0"
   d="m 533.1,387.7 c 0,1.2 0.5,6.3 5.7,6.3 3.2,0 5.6,-2.2 5.6,-5.9 0,-3.9 -3.2,-4.8 -5.6,-5.7 -4.7,-1.8 -5.8,-2.4 -7.4,-3.9 -1.6,-1.6 -2.4,-4.1 -2.4,-6.5 0,-4.1 3.2,-9.5 9.8,-9.5 5.8,0 10,3.8 10,9.7 h -5.1 c 0,-3.9 -2.8,-5 -4.9,-5 -3,0 -4.7,2.7 -4.7,4.8 0,3.3 3.2,4.2 4.7,4.8 4.4,1.7 10.7,3 10.7,11.4 0,6.1 -4.3,10.5 -10.7,10.5 -4.8,0 -10.7,-3.2 -10.7,-11 z"
   id="path74" />
	<path
   class="st0"
   d="m 439.8,113.8 h -34 v -6.9 c 0,-11.4 5.8,-17.5 16.6,-17.5 6,0 11.3,0.9 17.6,3 V 60.7 C 431.6,58.1 422.8,57 411.6,57 c -14.5,0 -25.5,3.8 -32.9,11.1 -7.6,7.6 -11.4,19.3 -11.4,34.9 v 10.8 h -23.4 v 31.3 h 23.4 v 112.4 h 39.1 V 145.1 h 33.4 z"
   id="path76" />
	<polygon
   class="st0"
   points="321.3,114 258.8,114 258.8,145.2 282.9,145.2 282.9,257.6 321.3,257.6 "
   id="polygon78" />
	<path
   class="st0"
   d="m 324,77.5 c 0,12.6 -10.2,22.8 -22.8,22.8 -12.6,0 -22.8,-10.2 -22.8,-22.8 0,-12.6 10.2,-22.8 22.8,-22.8 12.6,0 22.8,10.2 22.8,22.8"
   id="path80" />
	<path
   class="st0"
   d="m 488.9,246.4 c 7.4,7.4 18.5,11.2 32.9,11.2 8.9,0 16.2,-0.7 22.9,-2.3 v -31.6 c -4.1,1 -8,1.5 -12.2,1.5 -10.9,0 -16.6,-6 -16.6,-17.5 v -62.5 h 34 V 113.9 H 516.5 V 57 h -39.1 v 56.8 h -21.8 v 31.3 h 21.8 v 66.4 c 0.1,15.6 3.9,27.3 11.5,34.9"
   id="path82" />
	<path
   class="st1"
   d="M 93.1,193.9 C 70.3,181.3 55.6,156.6 56.5,129.5 l 0.5,-7 C 59,107 64.7,94.8 72.7,86.6 75.9,63.4 82.9,41.6 93.1,25.5 53.6,12.9 18.5,40.5 11.8,92.7 L 11,103.1 c -1.6,53.4 37.5,100.4 91.7,107.4 11.7,1.5 22.6,1.5 32.8,0.3 -16.6,0.5 -31.4,-5.3 -42.4,-16.9"
   id="path84" />
	<path
   class="st1"
   d="M 207.1,42.1 C 171.6,-3.8 122.3,-13.8 96.9,19.9 c -1.3,1.8 -2.6,3.7 -3.9,5.7 2.3,0.8 4.6,1.6 6.9,2.6 1.2,-1.9 2.4,-3.8 3.7,-5.5 18.8,-25 55.3,-17.6 81.7,16.5 20.1,26.1 21.1,61 5.2,87.6 2.8,7.4 4.8,14.6 5.8,21.5 4.7,33.3 -21,57.6 -60.8,62.4 16.6,-0.6 34.9,-7.4 52.7,-21.2 l 7.8,-6.7 c 38.9,-36.6 44.4,-97.5 11.1,-140.7"
   id="path86" />
	<path
   class="st2"
   d="M 85,78 C 86.8,59.3 92,41.4 100,28.2 97.7,27.2 95.4,26.3 93.1,25.6 82.8,41.7 75.8,63.5 72.7,86.7 76.3,82.9 80.5,80 85,78"
   id="path88" />
	<path
   class="st2"
   d="m 196.2,148.3 c -1,-6.9 -3,-14.2 -5.8,-21.5 -3.6,6 -8.1,11.6 -13.3,16.6 2.3,5.7 3.9,11.4 4.7,16.7 4,28.3 -24.3,47.1 -63.3,42.1 -9.2,-1.2 -17.7,-4.1 -25.4,-8.3 11,11.6 25.8,17.4 42.3,16.8 39.8,-4.8 65.5,-29.2 60.8,-62.4"
   id="path90" />
	<path
   class="st3"
   d="M 171.2,148.5 C 137.1,174.8 100.6,167.4 89.6,132 84.5,115.6 83.2,96.4 85,78 c -4.5,2 -8.6,4.9 -12.3,8.7 -3.7,27.2 -2.3,56.3 5.3,80.7 3.4,10.9 8.6,19.7 15.1,26.5 7.6,4.2 16.2,7.1 25.4,8.3 39,5 67.3,-13.8 63.3,-42.1 -0.8,-5.4 -2.4,-11 -4.7,-16.7 0,0 0,0 -0.1,0.1 z"
   id="path92" />
	<path
   class="st4"
   d="M 171.2,148.5 C 137.1,174.8 100.6,167.4 89.6,132 84.5,115.6 83.2,96.4 85,78 c -4.5,2 -8.6,4.9 -12.3,8.7 -3.7,27.2 -2.3,56.3 5.3,80.7 3.4,10.9 8.6,19.7 15.1,26.5 7.6,4.2 16.2,7.1 25.4,8.3 39,5 67.3,-13.8 63.3,-42.1 -0.8,-5.4 -2.4,-11 -4.7,-16.7 0,0 0,0 -0.1,0.1 z"
   id="path94" />
	<path
   class="st4"
   d="m 120.3,80.5 c 24.3,12.8 46.9,38.6 56.8,62.9 5.3,-5 9.7,-10.6 13.3,-16.6 C 176.5,89.9 142.2,50 105.3,30.6 103.5,29.6 101.7,28.9 99.9,28.2 92,41.4 86.8,59.2 85,78 c 10.4,-4.6 22.7,-4.1 35.3,2.5"
   id="path96" />
</g>
</svg>
