<?xml version="1.0" standalone="no"?>
<!DOCTYPE svg PUBLIC "-//W3C//DTD SVG 20010904//EN"
 "http://www.w3.org/TR/2001/REC-SVG-20010904/DTD/svg10.dtd">
<svg version="1.0" xmlns="http://www.w3.org/2000/svg"
 width="512.000000pt" height="512.000000pt" viewBox="0 0 512.000000 512.000000"
 preserveAspectRatio="xMidYMid meet">

<g transform="translate(0.000000,512.000000) scale(0.100000,-0.100000)"
fill="#000000" stroke="none">
<path d="M2404 4941 c-80 -36 -113 -132 -72 -210 42 -80 54 -85 262 -93 352
-13 633 -83 919 -230 751 -386 1201 -1211 1117 -2049 -92 -907 -762 -1652
-1648 -1834 -932 -191 -1872 269 -2287 1120 -140 286 -200 535 -213 882 -8
207 -13 220 -93 261 -53 28 -101 25 -155 -9 -57 -35 -74 -83 -74 -214 0 -257
42 -511 126 -764 239 -718 797 -1276 1514 -1515 1100 -366 2285 93 2856 1106
113 202 213 474 258 706 255 1313 -606 2578 -1919 2821 -237 44 -519 55 -591
22z"/>
<path d="M1925 4876 c-5 -2 -57 -19 -114 -37 -73 -23 -114 -42 -136 -64 -68
-63 -65 -165 5 -229 56 -51 96 -54 216 -16 141 45 161 57 191 107 58 100 0
218 -117 237 -19 3 -39 3 -45 2z"/>
<path d="M1246 4564 c-65 -33 -188 -130 -208 -163 -14 -22 -22 -51 -22 -80 1
-90 58 -151 148 -159 48 -4 56 -1 129 48 124 85 165 124 175 173 10 50 0 101
-26 136 -40 56 -135 78 -196 45z"/>
<path d="M753 4099 c-42 -12 -84 -55 -152 -154 -45 -65 -55 -87 -58 -129 -9
-112 81 -188 192 -164 49 11 70 30 144 133 79 109 84 120 79 175 -10 102 -108
168 -205 139z"/>
<path d="M2385 4069 c-415 -57 -792 -318 -972 -674 -240 -472 -152 -984 263
-1538 165 -221 435 -500 663 -685 167 -137 210 -153 290 -112 122 62 572 488
745 705 426 534 555 1011 400 1473 -137 408 -507 723 -959 817 -95 20 -332 28
-430 14z m281 -720 c98 -17 213 -79 288 -155 219 -218 219 -567 1 -787 -162
-164 -413 -212 -619 -118 -444 201 -445 821 -1 1022 103 46 214 59 331 38z"/>
<path d="M425 3491 c-76 -18 -100 -48 -145 -181 -37 -106 -41 -170 -17 -217
41 -78 142 -105 220 -60 50 30 62 50 107 191 24 76 30 109 24 139 -7 47 -62
112 -102 121 -15 4 -34 8 -42 10 -8 2 -28 1 -45 -3z"/>
</g>
</svg>
