<?xml version="1.0" standalone="no"?>
<!DOCTYPE svg PUBLIC "-//W3C//DTD SVG 20010904//EN"
 "http://www.w3.org/TR/2001/REC-SVG-20010904/DTD/svg10.dtd">
<svg version="1.0" xmlns="http://www.w3.org/2000/svg"
 width="512.000000pt" height="512.000000pt" viewBox="0 0 512.000000 512.000000"
 preserveAspectRatio="xMidYMid meet">

<g transform="translate(0.000000,512.000000) scale(0.100000,-0.100000)"
fill="#000000" stroke="none">
<path d="M1259 4596 c-80 -17 -144 -53 -272 -153 -152 -119 -325 -292 -371
-372 -102 -175 -120 -372 -54 -574 47 -145 229 -525 358 -747 449 -772 1072
-1394 1839 -1835 275 -157 661 -337 808 -376 55 -14 110 -21 183 -21 189 0
329 62 485 217 104 102 285 327 321 396 56 112 54 241 -8 363 -48 96 -121 158
-314 267 -369 210 -703 390 -760 410 -73 27 -188 36 -240 19 -109 -34 -189
-124 -231 -259 -14 -47 -35 -96 -46 -109 -28 -31 -77 -42 -127 -30 -98 25
-648 538 -894 833 -137 163 -146 179 -146 237 0 68 32 102 123 129 170 50 250
121 283 249 26 104 -2 221 -88 362 -28 46 -71 117 -96 158 -25 41 -110 198
-189 349 -78 151 -162 298 -184 328 -102 131 -240 189 -380 159z"/>
</g>
</svg>
